<?xml version="1.0" encoding="utf-8"?>
<!-- Generator: Adobe Illustrator 23.0.2, SVG Export Plug-In . SVG Version: 6.00 Build 0)  -->
<svg version="1.1" id="Layer_1" xmlns="http://www.w3.org/2000/svg" xmlns:xlink="http://www.w3.org/1999/xlink" x="0px" y="0px"
	 viewBox="0 0 254.52 110.62" style="enable-background:new 0 0 254.52 110.62;" xml:space="preserve">
<style type="text/css">
	.st0{fill:#FFFFFF;}
	.st1{fill:#CE905D;}
	.st2{fill:none;stroke:#000000;stroke-miterlimit:10;}
	.st3{opacity:0.5;}
	.st4{fill:#B51F1F;}
	.st5{fill:#20B26C;}
	.st6{fill:#22AF22;}
	.st7{fill:none;stroke:#000000;stroke-width:0.5;stroke-linecap:round;stroke-linejoin:round;}
</style>
<g id="Upright">
	<g id="XMLID_3_">
		<g>
			<path d="M66.87,35.1c7.34,14.02,14.28,28.27,14.28,35.82c0,22.3-18.14,39.45-40.45,39.45c-22.3,0-40.45-17.15-40.45-39.45
				c0-7.66,6.91-22.15,14.22-36.43c4.49-8.76,9.11-17.8,12.5-26.13h1.08c-3.42,8.47-8.12,17.67-12.69,26.58
				C8.11,49.12,1.25,63.5,1.25,70.92c0,21.75,17.7,38.45,39.45,38.45s39.45-16.7,39.45-38.45c0-7.31-6.88-21.45-14.17-35.36
				c-4.78-9.12-9.7-18.53-13.2-27.2h1.08C57.34,16.88,62.17,26.13,66.87,35.1z"/>
			<path class="st0" d="M73.15,69.39c0,18.08-14.65,32.74-32.73,32.74S7.69,88.47,7.69,70.39c0-18.07,14.29-20.85,32.37-20.85
				S73.15,51.32,73.15,69.39z"/>
			<polygon class="st1" points="53.2,2.54 51.99,8.36 29.31,8.36 28.2,2.54 			"/>
			<polygon class="st1" points="51.99,8.36 49.81,18.91 31.31,18.91 29.31,8.36 			"/>
		</g>
		<g>
			<polyline class="st2" points="23.31,8.36 26.97,8.36 28.05,8.36 29.31,8.36 51.99,8.36 52.78,8.36 53.86,8.36 56.81,8.36 			"/>
			<polygon class="st2" points="51.99,8.36 49.81,18.91 31.31,18.91 29.31,8.36 28.2,2.54 53.2,2.54 			"/>
			<path class="st2" d="M73.15,69.39c0,18.08-14.65,32.74-32.73,32.74S7.69,88.47,7.69,70.39c0-18.07,14.29-20.85,32.37-20.85
				S73.15,51.32,73.15,69.39z"/>
		</g>
	</g>
	<g id="XMLID_4_">
		<g>
			<polygon class="st1" points="139.76,1.54 138.43,8.36 115.98,8.36 114.76,1.54 			"/>
			<polygon class="st1" points="138.43,8.36 136.37,18.91 117.87,18.91 115.98,8.36 			"/>
			<path class="st0" d="M159.72,69.39c0,18.08-14.66,32.74-32.74,32.74c-18.07,0-32.73-13.66-32.73-31.74
				c0-18.07,14.29-20.85,32.37-20.85S159.72,51.32,159.72,69.39z"/>
			<path d="M166.71,70.92c0-7.31-6.88-21.45-14.17-35.36c-4.77-9.12-9.7-18.53-13.2-27.2h1.08c3.48,8.52,8.31,17.77,13.01,26.74
				c7.35,14.02,14.28,28.27,14.28,35.82c0,22.3-18.14,39.45-40.45,39.45c-22.3,0-40.45-17.15-40.45-39.45
				c0-7.66,6.91-22.15,14.23-36.43c4.48-8.76,9.1-17.8,12.49-26.13h1.08c-3.41,8.47-8.12,17.67-12.68,26.58
				C94.67,49.12,87.81,63.5,87.81,70.92c0,21.75,17.7,38.45,39.45,38.45C149.02,109.37,166.71,92.67,166.71,70.92z"/>
		</g>
		<g>
			<polyline class="st2" points="109.87,8.36 113.53,8.36 114.61,8.36 115.98,8.36 138.43,8.36 139.34,8.36 140.42,8.36 
				143.37,8.36 			"/>
			<polygon class="st2" points="138.43,8.36 136.37,18.91 117.87,18.91 115.98,8.36 114.76,1.54 139.76,1.54 			"/>
			<path class="st2" d="M159.72,69.39c0,18.08-14.66,32.74-32.74,32.74c-18.07,0-32.73-13.66-32.73-31.74
				c0-18.07,14.29-20.85,32.37-20.85S159.72,51.32,159.72,69.39z"/>
		</g>
	</g>
	<g id="XMLID_5_">
		<g>
			<polygon class="st1" points="204.43,18.87 202.55,8.32 225,8.32 222.93,18.87 			"/>
			<path d="M254.28,70.88c0,22.3-18.15,39.45-40.45,39.45c-22.31,0-40.45-17.15-40.45-39.45c0-7.66,6.9-22.15,14.22-36.43
				c4.49-8.76,9.11-17.8,12.49-26.13h1.09c-3.42,8.47-8.13,17.67-12.69,26.58c-7.26,14.17-14.11,28.56-14.11,35.98
				c0,21.75,17.69,38.45,39.45,38.45c21.75,0,39.45-16.7,39.45-38.45c0-7.31-6.89-21.45-14.17-35.36
				c-4.78-9.12-9.7-18.53-13.21-27.2h1.09c3.47,8.52,8.31,17.77,13,26.74C247.34,49.08,254.28,63.32,254.28,70.88z"/>
			<polygon class="st1" points="226.33,1.5 225,8.32 202.55,8.32 201.33,1.5 			"/>
			<path class="st0" d="M180.81,70.35c0-18.08,14.3-20.85,32.37-20.85c18.08,0,33.1,1.77,33.1,19.85s-14.66,32.73-32.73,32.73
				C195.47,102.08,180.81,88.43,180.81,70.35z"/>
		</g>
		<g>
			<polyline class="st2" points="196.43,8.32 200.09,8.32 201.18,8.32 202.55,8.32 225,8.32 225.9,8.32 226.99,8.32 229.93,8.32 			
				"/>
			<polygon class="st2" points="225,8.32 222.93,18.87 204.43,18.87 202.55,8.32 201.33,1.5 226.33,1.5 			"/>
			<path class="st2" d="M246.28,69.35c0,18.08-14.66,32.73-32.73,32.73c-18.08,0-32.74-13.65-32.74-31.73s14.3-20.85,32.37-20.85
				C231.26,49.5,246.28,51.27,246.28,69.35z"/>
		</g>
	</g>
	<g id="Colour_Fill" class="st3">
		<path class="st4" d="M72.2,63.53c-0.57-2.06-1.63-4.5-3.09-6.25c-0.2,0.27-0.67,0.35-0.86-0.05c-0.3-0.65-0.68-1.2-1.25-1.64
			c-0.11-0.08-0.16-0.19-0.18-0.3c-1.37-0.64-2.61-1.57-4.05-2.14c-1.67-0.66-3.38-1.18-5.08-1.74c-0.83,0.12-1.81-0.38-2.73-0.56
			c-0.99-0.19-1.92-0.06-2.73-0.38c-0.07,0.03-0.15,0.04-0.23,0.05c-0.89,0.07-1.69-0.21-2.57-0.24c-0.27-0.01-0.51-0.13-0.7-0.32
			c-0.04,0-0.09-0.01-0.13-0.01c-0.21,0.2-0.48,0.33-0.84,0.33c-0.39,0-0.65-0.16-0.81-0.39c-0.11,0.03-0.22,0.07-0.36,0.06
			c-3.11-0.09-6.23,0.02-9.33,0.08c-0.1,0-0.18-0.03-0.27-0.05c-0.08,0.01-0.15,0.05-0.23,0.05c-4.91,0-9.43,0.36-14.19,1.5
			c-4,0.96-7.16,1.88-9.61,4.23c-0.98,0.94-1.5,1.75-2.15,3.08c-0.1,0.21-0.59,0.92-0.76,1c-0.8,2.01-1.6,4.86-1.81,7.2
			c-0.27,2.92,0.04,5.86,0.27,8.78c0.01,0.03,0.02,0.05,0.03,0.07c0.19,0.66,0.3,1.29,0.33,1.97c0.25,0.77,0.51,0.53,0.8,1.29
			c0.58,1.57,1.17,3.27,1.81,4.99c1.96,2.89,3.42,6.25,6.15,8.47c0,0,0.01,0,0.01,0.01c0.32,0.23,0.63,0.48,0.92,0.75
			c0.16,0.14,0.26,0.3,0.33,0.46c1.11,0.92,2.42,1.58,3.58,2.46c0.19,0.15,0.31,0.32,0.39,0.5c1.44,0.86,3.01,1.48,4.55,2.15
			c1.45,0.63,3.3,1.75,4.91,1.81c0.21,0.01,0.39,0.06,0.54,0.15c0.12-0.04,0.24-0.07,0.38-0.07c0.7,0.01,1.17,0.05,2.08,0.23
			c1.06,0.21,2.1,0.43,3.17,0.52c1.68,0.14,3.4,0.1,5.09,0.09c0.12-0.07,0.26-0.13,0.42-0.16c0.91-0.16,1.88-0.3,2.81-0.22
			c0.12-0.08,0.25-0.14,0.39-0.19c1.48-0.48,3.02-0.77,4.5-1.25c0.06-0.02,0.12-0.03,0.18-0.04c0.09-0.08,0.19-0.15,0.32-0.2
			c1.6-0.7,3.19-1.42,4.76-2.19c0.07-0.15,0.16-0.29,0.32-0.4c6.34-4.18,11.86-10.82,14.07-18.17c0.02-0.07,0.05-0.14,0.08-0.2
			c0.63-3.02,1.31-5.89,1.37-8.8C72.83,67.78,72.35,65.69,72.2,63.53z"/>
	</g>
	<g id="Colour_Fill_1_" class="st3">
		<path class="st5" d="M158.11,63.58c-0.57-2.06-1.63-4.5-3.09-6.25c-0.2,0.27-0.67,0.35-0.86-0.05c-0.3-0.65-0.68-1.2-1.25-1.64
			c-0.11-0.08-0.16-0.19-0.18-0.3c-1.37-0.64-2.61-1.57-4.05-2.14c-1.67-0.66-3.38-1.18-5.08-1.74c-0.83,0.12-1.81-0.38-2.73-0.56
			c-0.99-0.19-1.92-0.06-2.73-0.38c-0.07,0.03-0.15,0.04-0.23,0.05c-0.89,0.07-1.69-0.21-2.57-0.24c-0.27-0.01-0.51-0.13-0.7-0.32
			c-0.04,0-0.09-0.01-0.13-0.01c-0.21,0.2-0.48,0.33-0.84,0.33c-0.39,0-0.65-0.16-0.81-0.39c-0.11,0.03-0.22,0.07-0.36,0.06
			c-3.11-0.09-6.23,0.02-9.33,0.08c-0.1,0-0.18-0.03-0.27-0.05c-0.08,0.01-0.15,0.05-0.23,0.05c-4.91,0-9.43,0.36-14.19,1.5
			c-4,0.96-7.16,1.88-9.61,4.23c-0.98,0.94-1.5,1.75-2.15,3.08c-0.1,0.21-0.59,0.92-0.76,1c-0.8,2.01-1.6,4.86-1.81,7.2
			c-0.27,2.92,0.04,5.86,0.27,8.78c0.01,0.03,0.02,0.05,0.03,0.07c0.19,0.66,0.3,1.29,0.33,1.97c0.25,0.77,0.51,0.53,0.8,1.29
			c0.58,1.57,1.17,3.27,1.81,4.99c1.96,2.89,3.42,6.25,6.15,8.47c0,0,0.01,0,0.01,0.01c0.32,0.23,0.63,0.48,0.92,0.75
			c0.16,0.14,0.26,0.3,0.33,0.46c1.11,0.92,2.42,1.58,3.58,2.46c0.19,0.15,0.31,0.32,0.39,0.5c1.44,0.86,3.01,1.48,4.55,2.15
			c1.45,0.63,3.3,1.75,4.91,1.81c0.21,0.01,0.39,0.06,0.54,0.15c0.12-0.04,0.24-0.07,0.38-0.07c0.7,0.01,1.17,0.05,2.08,0.23
			c1.06,0.21,2.1,0.43,3.17,0.52c1.68,0.14,3.4,0.1,5.09,0.09c0.12-0.07,0.26-0.13,0.42-0.16c0.91-0.16,1.88-0.3,2.81-0.22
			c0.12-0.08,0.25-0.14,0.39-0.19c1.48-0.48,3.02-0.77,4.5-1.25c0.06-0.02,0.12-0.03,0.18-0.04c0.09-0.08,0.19-0.15,0.32-0.2
			c1.6-0.7,3.19-1.42,4.76-2.19c0.07-0.15,0.16-0.29,0.32-0.4c6.34-4.18,11.86-10.82,14.07-18.17c0.02-0.07,0.05-0.14,0.08-0.2
			c0.63-3.02,1.31-5.89,1.37-8.8C158.74,67.83,158.26,65.75,158.11,63.58z"/>
	</g>
	<g id="Colour_Fill_2_" class="st3">
		<path class="st6" d="M244.67,63.54c-0.57-2.06-1.63-4.5-3.09-6.25c-0.2,0.27-0.67,0.35-0.86-0.05c-0.3-0.65-0.68-1.2-1.25-1.64
			c-0.11-0.08-0.16-0.19-0.18-0.3c-1.37-0.64-2.61-1.57-4.05-2.14c-1.67-0.66-3.38-1.18-5.08-1.74c-0.83,0.12-1.81-0.38-2.73-0.56
			c-0.99-0.19-1.92-0.06-2.73-0.38c-0.07,0.03-0.15,0.04-0.23,0.05c-0.89,0.07-1.69-0.21-2.57-0.24c-0.27-0.01-0.51-0.13-0.7-0.32
			c-0.04,0-0.09-0.01-0.13-0.01c-0.21,0.2-0.48,0.33-0.84,0.33c-0.39,0-0.65-0.16-0.81-0.39c-0.11,0.03-0.22,0.07-0.36,0.06
			c-3.11-0.09-6.23,0.02-9.33,0.08c-0.1,0-0.18-0.03-0.27-0.05c-0.08,0.01-0.15,0.05-0.23,0.05c-4.91,0-9.43,0.36-14.19,1.5
			c-4,0.96-7.16,1.88-9.61,4.23c-0.98,0.94-1.5,1.75-2.15,3.08c-0.1,0.21-0.59,0.92-0.76,1c-0.8,2.01-1.6,4.86-1.81,7.2
			c-0.27,2.92,0.04,5.86,0.27,8.78c0.01,0.03,0.02,0.05,0.03,0.07c0.19,0.66,0.3,1.29,0.33,1.97c0.25,0.77,0.51,0.53,0.8,1.29
			c0.58,1.57,1.17,3.27,1.81,4.99c1.96,2.89,3.42,6.25,6.15,8.47c0,0,0.01,0,0.01,0.01c0.32,0.23,0.63,0.48,0.92,0.75
			c0.16,0.14,0.26,0.3,0.33,0.46c1.11,0.92,2.42,1.58,3.58,2.46c0.19,0.15,0.31,0.32,0.39,0.5c1.44,0.86,3.01,1.48,4.55,2.15
			c1.45,0.63,3.3,1.75,4.91,1.81c0.21,0.01,0.39,0.06,0.54,0.15c0.12-0.04,0.24-0.07,0.38-0.07c0.7,0.01,1.17,0.05,2.08,0.23
			c1.06,0.21,2.1,0.43,3.17,0.52c1.68,0.14,3.4,0.1,5.09,0.09c0.12-0.07,0.26-0.13,0.42-0.16c0.91-0.16,1.88-0.3,2.81-0.22
			c0.12-0.08,0.25-0.14,0.39-0.19c1.48-0.48,3.02-0.77,4.5-1.25c0.06-0.02,0.12-0.03,0.18-0.04c0.09-0.08,0.19-0.15,0.32-0.2
			c1.6-0.7,3.19-1.42,4.76-2.19c0.07-0.15,0.16-0.29,0.32-0.4c6.34-4.18,11.86-10.82,14.07-18.17c0.02-0.07,0.05-0.14,0.08-0.2
			c0.63-3.02,1.31-5.89,1.37-8.8C245.3,67.79,244.82,65.7,244.67,63.54z"/>
	</g>
	<ellipse class="st7" cx="212.93" cy="58.41" rx="29" ry="8.91"/>
	<ellipse class="st7" cx="126.37" cy="58.45" rx="29" ry="8.91"/>
	<ellipse class="st7" cx="39.81" cy="58.45" rx="29" ry="8.91"/>
	<line class="st2" x1="38.12" y1="49.54" x2="41.62" y2="49.54"/>
	<line class="st2" x1="211.18" y1="49.5" x2="214.68" y2="49.5"/>
	<line class="st2" x1="124.62" y1="49.54" x2="128.12" y2="49.54"/>
</g>
</svg>
