<?xml version="1.0" encoding="utf-8"?>
<!-- Generator: Adobe Illustrator 23.0.2, SVG Export Plug-In . SVG Version: 6.00 Build 0)  -->
<svg version="1.1" id="Layer_1" xmlns="http://www.w3.org/2000/svg" xmlns:xlink="http://www.w3.org/1999/xlink" x="0px" y="0px"
	 viewBox="0 0 184.64 112.63" style="enable-background:new 0 0 184.64 112.63;" xml:space="preserve">
<style type="text/css">
	.st0{fill:url(#SVGID_1_);stroke:#000000;stroke-miterlimit:10;}
	.st1{fill:url(#SVGID_2_);stroke:#000000;stroke-miterlimit:10;}
	.st2{fill:url(#SVGID_3_);stroke:#000000;stroke-miterlimit:10;}
	.st3{fill:url(#SVGID_4_);stroke:#000000;stroke-miterlimit:10;}
	.st4{fill:none;stroke:#000000;stroke-miterlimit:10;}
</style>
<g>
	<g>
		<path d="M91.59,112.63c-0.67,0-1.42-0.48-2.24-1.42c-5.45-6.29-13.44-32.83-11.42-46.87c0.94-6.52,7.76-5.95,12.28-5.87
			c0.95,0.02,1.77,0.02,2.75,0c4.82-0.07,12.86-0.65,13.8,6.32c1.88,13.97-6.52,39.32-12.46,46.12
			C93.29,112.05,92.39,112.63,91.59,112.63z M88.53,58.44c-4.34,0-9.37,0.55-10.15,5.96c-2.01,13.94,5.91,40.27,11.31,46.5
			c0.72,0.83,1.37,1.26,1.9,1.26c0.64,0,1.46-0.54,2.36-1.57c5.89-6.74,14.22-31.89,12.36-45.76c-0.89-6.57-8.38-6.46-13.35-6.38
			c-0.98,0.01-1.79,0.01-2.75,0C89.67,58.45,89.1,58.44,88.53,58.44z"/>
	</g>
	<g>
		<path d="M101.29,58.79H83.34c-3.16,0-5.74-2.57-5.74-5.74V41.84c0-3.16,2.57-5.74,5.74-5.74h17.94c3.16,0,5.74,2.57,5.74,5.74
			v11.22C107.02,56.22,104.45,58.79,101.29,58.79z M83.34,36.56c-2.91,0-5.28,2.37-5.28,5.28v11.22c0,2.91,2.37,5.28,5.28,5.28
			h17.94c2.91,0,5.28-2.37,5.28-5.28V41.84c0-2.91-2.37-5.28-5.28-5.28H83.34z"/>
	</g>
	<g>
		<path d="M92.32,23.43c-6.99,0-12.67,5.68-12.67,12.67c0,0.7,0.06,1.39,0.17,2.07c0.01-0.01,0.03-0.03,0.04-0.04
			c0.12-0.1,0.25-0.19,0.38-0.26c-0.08-0.58-0.14-1.17-0.14-1.77c0-6.73,5.48-12.21,12.21-12.21c6.73,0,12.21,5.48,12.21,12.21
			c0,0.57-0.05,1.14-0.13,1.69c0.15,0.11,0.29,0.23,0.42,0.37c0.11-0.67,0.17-1.36,0.17-2.06C104.99,29.11,99.3,23.43,92.32,23.43z"
			/>
	</g>
	
		<linearGradient id="SVGID_1_" gradientUnits="userSpaceOnUse" x1="68.7779" y1="107.369" x2="4.7779" y2="147.369" gradientTransform="matrix(1 0 0 -1 0 158)">
		<stop  offset="0" style="stop-color:#40ACA1;stop-opacity:0.5"/>
		<stop  offset="1" style="stop-color:#3DDEED;stop-opacity:0"/>
	</linearGradient>
	<path class="st0" d="M68.56,58.04l-50.57-9.22c-5.02,0-11.15-12.32-11.15-17.34L0.5,8.67c0-5.02,8.92-8.17,13.94-8.17l38.78,10.45
		c5.02,0,24.47,21.09,24.47,26.1v11.86C77.69,53.93,73.58,58.04,68.56,58.04z"/>
	
		<linearGradient id="SVGID_2_" gradientUnits="userSpaceOnUse" x1="64.22" y1="79.4198" x2="13.0778" y2="111.3837" gradientTransform="matrix(1 0 0 -1 0 158)">
		<stop  offset="0" style="stop-color:#4BD400;stop-opacity:0.5"/>
		<stop  offset="1" style="stop-color:#3DDEED;stop-opacity:0"/>
	</linearGradient>
	<path class="st1" d="M68.56,34.71l-50.57,9.22c-5.02,0-11.15,12.32-11.15,17.34L0.5,84.08c0,5.02,8.92,8.17,13.94,8.17L53.21,81.8
		c5.02,0,24.47-21.09,24.47-26.1V43.83C77.69,38.82,73.58,34.71,68.56,34.71z"/>
	
		<linearGradient id="SVGID_3_" gradientUnits="userSpaceOnUse" x1="132.0033" y1="79.9854" x2="80.8539" y2="111.9537" gradientTransform="matrix(-1 0 0 -1 252.416 158)">
		<stop  offset="0" style="stop-color:#4BD400;stop-opacity:0.5"/>
		<stop  offset="1" style="stop-color:#3DDEED;stop-opacity:0"/>
	</linearGradient>
	<path class="st2" d="M116.08,34.14l50.57,9.22c5.02,0,11.15,12.32,11.15,17.34l6.34,22.81c0,5.02-8.92,8.17-13.94,8.17
		l-38.78-10.45c-5.02,0-24.47-21.09-24.47-26.1V43.26C106.95,38.25,111.06,34.14,116.08,34.14z"/>
	
		<linearGradient id="SVGID_4_" gradientUnits="userSpaceOnUse" x1="106.65" y1="128.16" x2="183.84" y2="128.16" gradientTransform="matrix(1 0 0 -1 0 158)">
		<stop  offset="0" style="stop-color:#3DDEED;stop-opacity:0.5"/>
		<stop  offset="1" style="stop-color:#3DDEED;stop-opacity:0"/>
	</linearGradient>
	<path class="st3" d="M115.78,58.61l50.57-9.22c5.02,0,11.15-12.32,11.15-17.34l6.34-22.81c0-5.02-8.92-8.17-13.94-8.17
		l-38.78,10.45c-5.02,0-24.47,21.09-24.47,26.1v11.86C106.66,54.51,110.77,58.61,115.78,58.61z"/>
	<path class="st4" d="M85.71,25.84c0-12.88-8.45-23.3-18.89-23.3"/>
	<path class="st4" d="M99.74,25.84c0-12.88,9.78-23.3,21.87-23.3"/>
</g>
</svg>
